<svg width="48" height="31" viewBox="0 0 48 31" fill="none" xmlns="http://www.w3.org/2000/svg">
<g clip-path="url(#clip0_6_49)">
<path d="M25.03 0L23.56 4.22L22.55 7.12L20.38 13.36L16.59 24.28H16.57L14.89 28.99L14.43 30.27H0V0H3.11L5.63 15.38H5.8L6.7 9.8L7.03 7.83L8.31 0H25.03Z" fill="#1C1C1C"/>
<path d="M27 0L25.54 4.23L24.52 7.15L22.38 13.37L18.54 24.3L16.89 29.01L16.4 30.27H47.44V0H26.99H27ZM34.63 21.08C31.38 21.08 28.71 18.41 28.71 15.15C28.71 11.89 31.38 9.18 34.63 9.18C37.88 9.18 40.6 11.85 40.6 15.15C40.6 18.45 37.93 21.08 34.63 21.08Z" fill="#1C1C1C"/>
</g>
<defs>
<clipPath id="clip0_6_49">
<rect width="47.45" height="30.27" fill="white"/>
</clipPath>
</defs>
</svg>
